<svg xmlns="http://www.w3.org/2000/svg" version="1.1" xmlns:xlink="http://www.w3.org/1999/xlink" xmlns:svgjs="http://svgjs.com/svgjs" width="1440" height="560" preserveAspectRatio="none" viewBox="0 0 1440 560"><g mask="url(&quot;#SvgjsMask1818&quot;)" fill="none"><path d="M-94.99 337.97L-94.99 337.97" stroke="rgba(60, 60, 61, 1)" stroke-width="1.5"></path><path d="M-94.99 337.97L38.7 376.23" stroke="rgba(60, 60, 61, 1)" stroke-width="1.5"></path><path d="M-94.99 337.97L-50.29 540.36" stroke="rgba(60, 60, 61, 1)" stroke-width="1.5"></path><path d="M-94.99 337.97L92.89 531.65" stroke="rgba(60, 60, 61, 1)" stroke-width="1.5"></path><path d="M-94.99 337.97L-39.02 646.91" stroke="rgba(60, 60, 61, 1)" stroke-width="1.5"></path><path d="M-94.99 337.97L231.55 363.05" stroke="rgba(60, 60, 61, 1)" stroke-width="1.5"></path><path d="M-94.99 337.97L195.78 491.5" stroke="rgba(60, 60, 61, 1)" stroke-width="1.5"></path><path d="M-50.29 540.36L-50.29 540.36" stroke="rgba(60, 60, 61, 1)" stroke-width="1.5"></path><path d="M-50.29 540.36L-39.02 646.91" stroke="rgba(60, 60, 61, 1)" stroke-width="1.5"></path><path d="M-50.29 540.36L92.89 531.65" stroke="rgba(60, 60, 61, 1)" stroke-width="1.5"></path><path d="M-39.02 646.91L-39.02 646.91" stroke="rgba(60, 60, 61, 1)" stroke-width="1.5"></path><path d="M-39.02 646.91L103.09 690.28" stroke="rgba(60, 60, 61, 1)" stroke-width="1.5"></path><path d="M-39.02 646.91L92.89 531.65" stroke="rgba(60, 60, 61, 1)" stroke-width="1.5"></path><path d="M-39.02 646.91L207.85 705.82" stroke="rgba(60, 60, 61, 1)" stroke-width="1.5"></path><path d="M38.7 376.23L38.7 376.23" stroke="rgba(60, 60, 61, 1)" stroke-width="1.5"></path><path d="M38.7 376.23L92.89 531.65" stroke="rgba(60, 60, 61, 1)" stroke-width="1.5"></path><path d="M38.7 376.23L-50.29 540.36" stroke="rgba(60, 60, 61, 1)" stroke-width="1.5"></path><path d="M38.7 376.23L231.55 363.05" stroke="rgba(60, 60, 61, 1)" stroke-width="1.5"></path><path d="M38.7 376.23L195.78 491.5" stroke="rgba(60, 60, 61, 1)" stroke-width="1.5"></path><path d="M92.89 531.65L92.89 531.65" stroke="rgba(60, 60, 61, 1)" stroke-width="1.5"></path><path d="M92.89 531.65L195.78 491.5" stroke="rgba(60, 60, 61, 1)" stroke-width="1.5"></path><path d="M103.09 690.28L103.09 690.28" stroke="rgba(60, 60, 61, 1)" stroke-width="1.5"></path><path d="M103.09 690.28L207.85 705.82" stroke="rgba(60, 60, 61, 1)" stroke-width="1.5"></path><path d="M103.09 690.28L92.89 531.65" stroke="rgba(60, 60, 61, 1)" stroke-width="1.5"></path><path d="M103.09 690.28L-50.29 540.36" stroke="rgba(60, 60, 61, 1)" stroke-width="1.5"></path><path d="M231.55 363.05L231.55 363.05" stroke="rgba(60, 60, 61, 1)" stroke-width="1.5"></path><path d="M231.55 363.05L195.78 491.5" stroke="rgba(60, 60, 61, 1)" stroke-width="1.5"></path><path d="M231.55 363.05L373.97 359.03" stroke="rgba(60, 60, 61, 1)" stroke-width="1.5"></path><path d="M231.55 363.05L376.16 498.72" stroke="rgba(60, 60, 61, 1)" stroke-width="1.5"></path><path d="M231.55 363.05L92.89 531.65" stroke="rgba(60, 60, 61, 1)" stroke-width="1.5"></path><path d="M195.78 491.5L195.78 491.5" stroke="rgba(60, 60, 61, 1)" stroke-width="1.5"></path><path d="M207.85 705.82L207.85 705.82" stroke="rgba(60, 60, 61, 1)" stroke-width="1.5"></path><path d="M207.85 705.82L366.94 664.2" stroke="rgba(60, 60, 61, 1)" stroke-width="1.5"></path><path d="M207.85 705.82L92.89 531.65" stroke="rgba(60, 60, 61, 1)" stroke-width="1.5"></path><path d="M207.85 705.82L195.78 491.5" stroke="rgba(60, 60, 61, 1)" stroke-width="1.5"></path><path d="M207.85 705.82L376.16 498.72" stroke="rgba(60, 60, 61, 1)" stroke-width="1.5"></path><path d="M373.97 359.03L373.97 359.03" stroke="rgba(60, 60, 61, 1)" stroke-width="1.5"></path><path d="M373.97 359.03L376.16 498.72" stroke="rgba(60, 60, 61, 1)" stroke-width="1.5"></path><path d="M376.16 498.72L376.16 498.72" stroke="rgba(60, 60, 61, 1)" stroke-width="1.5"></path><path d="M376.16 498.72L513.18 526.19" stroke="rgba(60, 60, 61, 1)" stroke-width="1.5"></path><path d="M376.16 498.72L366.94 664.2" stroke="rgba(60, 60, 61, 1)" stroke-width="1.5"></path><path d="M376.16 498.72L195.78 491.5" stroke="rgba(60, 60, 61, 1)" stroke-width="1.5"></path><path d="M376.16 498.72L551.88 408.71" stroke="rgba(60, 60, 61, 1)" stroke-width="1.5"></path><path d="M366.94 664.2L366.94 664.2" stroke="rgba(60, 60, 61, 1)" stroke-width="1.5"></path><path d="M366.94 664.2L539.9 641.16" stroke="rgba(60, 60, 61, 1)" stroke-width="1.5"></path><path d="M551.88 408.71L551.88 408.71" stroke="rgba(60, 60, 61, 1)" stroke-width="1.5"></path><path d="M551.88 408.71L640.52 339.58" stroke="rgba(60, 60, 61, 1)" stroke-width="1.5"></path><path d="M551.88 408.71L513.18 526.19" stroke="rgba(60, 60, 61, 1)" stroke-width="1.5"></path><path d="M513.18 526.19L513.18 526.19" stroke="rgba(60, 60, 61, 1)" stroke-width="1.5"></path><path d="M513.18 526.19L539.9 641.16" stroke="rgba(60, 60, 61, 1)" stroke-width="1.5"></path><path d="M513.18 526.19L366.94 664.2" stroke="rgba(60, 60, 61, 1)" stroke-width="1.5"></path><path d="M513.18 526.19L373.97 359.03" stroke="rgba(60, 60, 61, 1)" stroke-width="1.5"></path><path d="M539.9 641.16L539.9 641.16" stroke="rgba(60, 60, 61, 1)" stroke-width="1.5"></path><path d="M655 223.86L655 223.86" stroke="rgba(60, 60, 61, 1)" stroke-width="1.5"></path><path d="M655 223.86L640.52 339.58" stroke="rgba(60, 60, 61, 1)" stroke-width="1.5"></path><path d="M655 223.86L842.17 240.57" stroke="rgba(60, 60, 61, 1)" stroke-width="1.5"></path><path d="M640.52 339.58L640.52 339.58" stroke="rgba(60, 60, 61, 1)" stroke-width="1.5"></path><path d="M640.52 339.58L861.51 342.53" stroke="rgba(60, 60, 61, 1)" stroke-width="1.5"></path><path d="M640.52 339.58L842.17 240.57" stroke="rgba(60, 60, 61, 1)" stroke-width="1.5"></path><path d="M664.13 689.82L664.13 689.82" stroke="rgba(60, 60, 61, 1)" stroke-width="1.5"></path><path d="M664.13 689.82L539.9 641.16" stroke="rgba(60, 60, 61, 1)" stroke-width="1.5"></path><path d="M664.13 689.82L842.75 657.84" stroke="rgba(60, 60, 61, 1)" stroke-width="1.5"></path><path d="M664.13 689.82L513.18 526.19" stroke="rgba(60, 60, 61, 1)" stroke-width="1.5"></path><path d="M664.13 689.82L836.74 531.23" stroke="rgba(60, 60, 61, 1)" stroke-width="1.5"></path><path d="M664.13 689.82L366.94 664.2" stroke="rgba(60, 60, 61, 1)" stroke-width="1.5"></path><path d="M842.17 240.57L842.17 240.57" stroke="rgba(60, 60, 61, 1)" stroke-width="1.5"></path><path d="M842.17 240.57L861.51 342.53" stroke="rgba(60, 60, 61, 1)" stroke-width="1.5"></path><path d="M842.17 240.57L990.38 226.59" stroke="rgba(60, 60, 61, 1)" stroke-width="1.5"></path><path d="M842.17 240.57L1008.76 380.66" stroke="rgba(60, 60, 61, 1)" stroke-width="1.5"></path><path d="M861.51 342.53L861.51 342.53" stroke="rgba(60, 60, 61, 1)" stroke-width="1.5"></path><path d="M861.51 342.53L1008.76 380.66" stroke="rgba(60, 60, 61, 1)" stroke-width="1.5"></path><path d="M861.51 342.53L990.38 226.59" stroke="rgba(60, 60, 61, 1)" stroke-width="1.5"></path><path d="M836.74 531.23L836.74 531.23" stroke="rgba(60, 60, 61, 1)" stroke-width="1.5"></path><path d="M836.74 531.23L842.75 657.84" stroke="rgba(60, 60, 61, 1)" stroke-width="1.5"></path><path d="M836.74 531.23L977.43 512.36" stroke="rgba(60, 60, 61, 1)" stroke-width="1.5"></path><path d="M836.74 531.23L861.51 342.53" stroke="rgba(60, 60, 61, 1)" stroke-width="1.5"></path><path d="M842.75 657.84L842.75 657.84" stroke="rgba(60, 60, 61, 1)" stroke-width="1.5"></path><path d="M842.75 657.84L975.67 674.27" stroke="rgba(60, 60, 61, 1)" stroke-width="1.5"></path><path d="M962.23 -109.29L962.23 -109.29" stroke="rgba(60, 60, 61, 1)" stroke-width="1.5"></path><path d="M962.23 -109.29L988.81 47.84" stroke="rgba(60, 60, 61, 1)" stroke-width="1.5"></path><path d="M988.81 47.84L988.81 47.84" stroke="rgba(60, 60, 61, 1)" stroke-width="1.5"></path><path d="M988.81 47.84L1127.69 108.78" stroke="rgba(60, 60, 61, 1)" stroke-width="1.5"></path><path d="M988.81 47.84L990.38 226.59" stroke="rgba(60, 60, 61, 1)" stroke-width="1.5"></path><path d="M988.81 47.84L1102.09 195.94" stroke="rgba(60, 60, 61, 1)" stroke-width="1.5"></path><path d="M988.81 47.84L1126.12 -86.62" stroke="rgba(60, 60, 61, 1)" stroke-width="1.5"></path><path d="M988.81 47.84L842.17 240.57" stroke="rgba(60, 60, 61, 1)" stroke-width="1.5"></path><path d="M990.38 226.59L990.38 226.59" stroke="rgba(60, 60, 61, 1)" stroke-width="1.5"></path><path d="M990.38 226.59L1102.09 195.94" stroke="rgba(60, 60, 61, 1)" stroke-width="1.5"></path><path d="M990.38 226.59L1008.76 380.66" stroke="rgba(60, 60, 61, 1)" stroke-width="1.5"></path><path d="M1008.76 380.66L1008.76 380.66" stroke="rgba(60, 60, 61, 1)" stroke-width="1.5"></path><path d="M1008.76 380.66L1130.8 358.78" stroke="rgba(60, 60, 61, 1)" stroke-width="1.5"></path><path d="M1008.76 380.66L977.43 512.36" stroke="rgba(60, 60, 61, 1)" stroke-width="1.5"></path><path d="M1008.76 380.66L1121.07 536.49" stroke="rgba(60, 60, 61, 1)" stroke-width="1.5"></path><path d="M1008.76 380.66L1102.09 195.94" stroke="rgba(60, 60, 61, 1)" stroke-width="1.5"></path><path d="M977.43 512.36L977.43 512.36" stroke="rgba(60, 60, 61, 1)" stroke-width="1.5"></path><path d="M975.67 674.27L975.67 674.27" stroke="rgba(60, 60, 61, 1)" stroke-width="1.5"></path><path d="M975.67 674.27L977.43 512.36" stroke="rgba(60, 60, 61, 1)" stroke-width="1.5"></path><path d="M975.67 674.27L1151.3 664.54" stroke="rgba(60, 60, 61, 1)" stroke-width="1.5"></path><path d="M975.67 674.27L836.74 531.23" stroke="rgba(60, 60, 61, 1)" stroke-width="1.5"></path><path d="M975.67 674.27L1121.07 536.49" stroke="rgba(60, 60, 61, 1)" stroke-width="1.5"></path><path d="M975.67 674.27L1008.76 380.66" stroke="rgba(60, 60, 61, 1)" stroke-width="1.5"></path><path d="M1126.12 -86.62L1126.12 -86.62" stroke="rgba(60, 60, 61, 1)" stroke-width="1.5"></path><path d="M1126.12 -86.62L962.23 -109.29" stroke="rgba(60, 60, 61, 1)" stroke-width="1.5"></path><path d="M1126.12 -86.62L1295.86 -90.37" stroke="rgba(60, 60, 61, 1)" stroke-width="1.5"></path><path d="M1127.69 108.78L1127.69 108.78" stroke="rgba(60, 60, 61, 1)" stroke-width="1.5"></path><path d="M1127.69 108.78L1102.09 195.94" stroke="rgba(60, 60, 61, 1)" stroke-width="1.5"></path><path d="M1127.69 108.78L1262.38 66.49" stroke="rgba(60, 60, 61, 1)" stroke-width="1.5"></path><path d="M1127.69 108.78L990.38 226.59" stroke="rgba(60, 60, 61, 1)" stroke-width="1.5"></path><path d="M1127.69 108.78L1279.78 229.41" stroke="rgba(60, 60, 61, 1)" stroke-width="1.5"></path><path d="M1127.69 108.78L1126.12 -86.62" stroke="rgba(60, 60, 61, 1)" stroke-width="1.5"></path><path d="M1102.09 195.94L1102.09 195.94" stroke="rgba(60, 60, 61, 1)" stroke-width="1.5"></path><path d="M1102.09 195.94L1130.8 358.78" stroke="rgba(60, 60, 61, 1)" stroke-width="1.5"></path><path d="M1102.09 195.94L1279.78 229.41" stroke="rgba(60, 60, 61, 1)" stroke-width="1.5"></path><path d="M1102.09 195.94L1262.38 66.49" stroke="rgba(60, 60, 61, 1)" stroke-width="1.5"></path><path d="M1130.8 358.78L1130.8 358.78" stroke="rgba(60, 60, 61, 1)" stroke-width="1.5"></path><path d="M1130.8 358.78L1270.04 366.51" stroke="rgba(60, 60, 61, 1)" stroke-width="1.5"></path><path d="M1130.8 358.78L1121.07 536.49" stroke="rgba(60, 60, 61, 1)" stroke-width="1.5"></path><path d="M1130.8 358.78L990.38 226.59" stroke="rgba(60, 60, 61, 1)" stroke-width="1.5"></path><path d="M1121.07 536.49L1121.07 536.49" stroke="rgba(60, 60, 61, 1)" stroke-width="1.5"></path><path d="M1121.07 536.49L1151.3 664.54" stroke="rgba(60, 60, 61, 1)" stroke-width="1.5"></path><path d="M1121.07 536.49L977.43 512.36" stroke="rgba(60, 60, 61, 1)" stroke-width="1.5"></path><path d="M1121.07 536.49L1304.09 552.27" stroke="rgba(60, 60, 61, 1)" stroke-width="1.5"></path><path d="M1151.3 664.54L1151.3 664.54" stroke="rgba(60, 60, 61, 1)" stroke-width="1.5"></path><path d="M1151.3 664.54L1305.69 679.04" stroke="rgba(60, 60, 61, 1)" stroke-width="1.5"></path><path d="M1151.3 664.54L1304.09 552.27" stroke="rgba(60, 60, 61, 1)" stroke-width="1.5"></path><path d="M1295.86 -90.37L1295.86 -90.37" stroke="rgba(60, 60, 61, 1)" stroke-width="1.5"></path><path d="M1295.86 -90.37L1454.22 -107.48" stroke="rgba(60, 60, 61, 1)" stroke-width="1.5"></path><path d="M1295.86 -90.37L1262.38 66.49" stroke="rgba(60, 60, 61, 1)" stroke-width="1.5"></path><path d="M1295.86 -90.37L1460.45 108.77" stroke="rgba(60, 60, 61, 1)" stroke-width="1.5"></path><path d="M1295.86 -90.37L1127.69 108.78" stroke="rgba(60, 60, 61, 1)" stroke-width="1.5"></path><path d="M1295.86 -90.37L1408.47 194.85" stroke="rgba(60, 60, 61, 1)" stroke-width="1.5"></path><path d="M1262.38 66.49L1262.38 66.49" stroke="rgba(60, 60, 61, 1)" stroke-width="1.5"></path><path d="M1262.38 66.49L1279.78 229.41" stroke="rgba(60, 60, 61, 1)" stroke-width="1.5"></path><path d="M1262.38 66.49L1408.47 194.85" stroke="rgba(60, 60, 61, 1)" stroke-width="1.5"></path><path d="M1262.38 66.49L1460.45 108.77" stroke="rgba(60, 60, 61, 1)" stroke-width="1.5"></path><path d="M1262.38 66.49L1126.12 -86.62" stroke="rgba(60, 60, 61, 1)" stroke-width="1.5"></path><path d="M1279.78 229.41L1279.78 229.41" stroke="rgba(60, 60, 61, 1)" stroke-width="1.5"></path><path d="M1279.78 229.41L1408.47 194.85" stroke="rgba(60, 60, 61, 1)" stroke-width="1.5"></path><path d="M1279.78 229.41L1270.04 366.51" stroke="rgba(60, 60, 61, 1)" stroke-width="1.5"></path><path d="M1279.78 229.41L1130.8 358.78" stroke="rgba(60, 60, 61, 1)" stroke-width="1.5"></path><path d="M1270.04 366.51L1270.04 366.51" stroke="rgba(60, 60, 61, 1)" stroke-width="1.5"></path><path d="M1304.09 552.27L1304.09 552.27" stroke="rgba(60, 60, 61, 1)" stroke-width="1.5"></path><path d="M1304.09 552.27L1305.69 679.04" stroke="rgba(60, 60, 61, 1)" stroke-width="1.5"></path><path d="M1305.69 679.04L1305.69 679.04" stroke="rgba(60, 60, 61, 1)" stroke-width="1.5"></path><path d="M1305.69 679.04L1434.01 696.76" stroke="rgba(60, 60, 61, 1)" stroke-width="1.5"></path><path d="M1454.22 -107.48L1454.22 -107.48" stroke="rgba(60, 60, 61, 1)" stroke-width="1.5"></path><path d="M1454.22 -107.48L1601.15 -47.68" stroke="rgba(60, 60, 61, 1)" stroke-width="1.5"></path><path d="M1454.22 -107.48L1460.45 108.77" stroke="rgba(60, 60, 61, 1)" stroke-width="1.5"></path><path d="M1460.45 108.77L1460.45 108.77" stroke="rgba(60, 60, 61, 1)" stroke-width="1.5"></path><path d="M1460.45 108.77L1408.47 194.85" stroke="rgba(60, 60, 61, 1)" stroke-width="1.5"></path><path d="M1460.45 108.77L1582.36 105.66" stroke="rgba(60, 60, 61, 1)" stroke-width="1.5"></path><path d="M1460.45 108.77L1576.1 214.89" stroke="rgba(60, 60, 61, 1)" stroke-width="1.5"></path><path d="M1408.47 194.85L1408.47 194.85" stroke="rgba(60, 60, 61, 1)" stroke-width="1.5"></path><path d="M1408.47 194.85L1576.1 214.89" stroke="rgba(60, 60, 61, 1)" stroke-width="1.5"></path><path d="M1408.47 194.85L1446.55 367.83" stroke="rgba(60, 60, 61, 1)" stroke-width="1.5"></path><path d="M1446.55 367.83L1446.55 367.83" stroke="rgba(60, 60, 61, 1)" stroke-width="1.5"></path><path d="M1446.55 367.83L1556.92 396.29" stroke="rgba(60, 60, 61, 1)" stroke-width="1.5"></path><path d="M1446.55 367.83L1432.88 516.02" stroke="rgba(60, 60, 61, 1)" stroke-width="1.5"></path><path d="M1446.55 367.83L1270.04 366.51" stroke="rgba(60, 60, 61, 1)" stroke-width="1.5"></path><path d="M1432.88 516.02L1432.88 516.02" stroke="rgba(60, 60, 61, 1)" stroke-width="1.5"></path><path d="M1432.88 516.02L1304.09 552.27" stroke="rgba(60, 60, 61, 1)" stroke-width="1.5"></path><path d="M1432.88 516.02L1556.92 396.29" stroke="rgba(60, 60, 61, 1)" stroke-width="1.5"></path><path d="M1432.88 516.02L1606.25 538.02" stroke="rgba(60, 60, 61, 1)" stroke-width="1.5"></path><path d="M1432.88 516.02L1434.01 696.76" stroke="rgba(60, 60, 61, 1)" stroke-width="1.5"></path><path d="M1432.88 516.02L1305.69 679.04" stroke="rgba(60, 60, 61, 1)" stroke-width="1.5"></path><path d="M1434.01 696.76L1434.01 696.76" stroke="rgba(60, 60, 61, 1)" stroke-width="1.5"></path><path d="M1434.01 696.76L1601.54 667.43" stroke="rgba(60, 60, 61, 1)" stroke-width="1.5"></path><path d="M1434.01 696.76L1304.09 552.27" stroke="rgba(60, 60, 61, 1)" stroke-width="1.5"></path><path d="M1601.15 -47.68L1601.15 -47.68" stroke="rgba(60, 60, 61, 1)" stroke-width="1.5"></path><path d="M1601.15 -47.68L1582.36 105.66" stroke="rgba(60, 60, 61, 1)" stroke-width="1.5"></path><path d="M1601.15 -47.68L1460.45 108.77" stroke="rgba(60, 60, 61, 1)" stroke-width="1.5"></path><path d="M1582.36 105.66L1582.36 105.66" stroke="rgba(60, 60, 61, 1)" stroke-width="1.5"></path><path d="M1582.36 105.66L1576.1 214.89" stroke="rgba(60, 60, 61, 1)" stroke-width="1.5"></path><path d="M1576.1 214.89L1576.1 214.89" stroke="rgba(60, 60, 61, 1)" stroke-width="1.5"></path><path d="M1576.1 214.89L1556.92 396.29" stroke="rgba(60, 60, 61, 1)" stroke-width="1.5"></path><path d="M1576.1 214.89L1446.55 367.83" stroke="rgba(60, 60, 61, 1)" stroke-width="1.5"></path><path d="M1556.92 396.29L1556.92 396.29" stroke="rgba(60, 60, 61, 1)" stroke-width="1.5"></path><path d="M1556.92 396.29L1606.25 538.02" stroke="rgba(60, 60, 61, 1)" stroke-width="1.5"></path><path d="M1606.25 538.02L1606.25 538.02" stroke="rgba(60, 60, 61, 1)" stroke-width="1.5"></path><path d="M1606.25 538.02L1601.54 667.43" stroke="rgba(60, 60, 61, 1)" stroke-width="1.5"></path><path d="M1606.25 538.02L1446.55 367.83" stroke="rgba(60, 60, 61, 1)" stroke-width="1.5"></path><path d="M1606.25 538.02L1434.01 696.76" stroke="rgba(60, 60, 61, 1)" stroke-width="1.5"></path><path d="M1601.54 667.43L1601.54 667.43" stroke="rgba(60, 60, 61, 1)" stroke-width="1.5"></path><path d="M1601.54 667.43L1432.88 516.02" stroke="rgba(60, 60, 61, 1)" stroke-width="1.5"></path><circle r="5" cx="-94.99" cy="337.97" fill="rgba(60, 60, 61, 1)"></circle><circle r="5" cx="-50.29" cy="540.36" fill="rgba(60, 60, 61, 1)"></circle><circle r="5" cx="-39.02" cy="646.91" fill="rgba(60, 60, 61, 1)"></circle><circle r="5" cx="38.7" cy="376.23" fill="rgba(60, 60, 61, 1)"></circle><circle r="5" cx="92.89" cy="531.65" fill="rgba(60, 60, 61, 1)"></circle><circle r="5" cx="103.09" cy="690.28" fill="rgba(60, 60, 61, 1)"></circle><circle r="5" cx="231.55" cy="363.05" fill="rgba(60, 60, 61, 1)"></circle><circle r="5" cx="195.78" cy="491.5" fill="rgba(60, 60, 61, 1)"></circle><circle r="5" cx="207.85" cy="705.82" fill="rgba(60, 60, 61, 1)"></circle><circle r="5" cx="373.97" cy="359.03" fill="rgba(60, 60, 61, 1)"></circle><circle r="5" cx="376.16" cy="498.72" fill="rgba(60, 60, 61, 1)"></circle><circle r="5" cx="366.94" cy="664.2" fill="rgba(60, 60, 61, 1)"></circle><circle r="5" cx="551.88" cy="408.71" fill="rgba(60, 60, 61, 1)"></circle><circle r="5" cx="513.18" cy="526.19" fill="rgba(60, 60, 61, 1)"></circle><circle r="5" cx="539.9" cy="641.16" fill="rgba(60, 60, 61, 1)"></circle><circle r="5" cx="655" cy="223.86" fill="rgba(60, 60, 61, 1)"></circle><circle r="5" cx="640.52" cy="339.58" fill="rgba(60, 60, 61, 1)"></circle><circle r="5" cx="664.13" cy="689.82" fill="rgba(60, 60, 61, 1)"></circle><circle r="5" cx="842.17" cy="240.57" fill="rgba(60, 60, 61, 1)"></circle><circle r="5" cx="861.51" cy="342.53" fill="rgba(60, 60, 61, 1)"></circle><circle r="5" cx="836.74" cy="531.23" fill="rgba(60, 60, 61, 1)"></circle><circle r="5" cx="842.75" cy="657.84" fill="rgba(60, 60, 61, 1)"></circle><circle r="5" cx="962.23" cy="-109.29" fill="rgba(60, 60, 61, 1)"></circle><circle r="5" cx="988.81" cy="47.84" fill="rgba(60, 60, 61, 1)"></circle><circle r="5" cx="990.38" cy="226.59" fill="rgba(60, 60, 61, 1)"></circle><circle r="5" cx="1008.76" cy="380.66" fill="rgba(60, 60, 61, 1)"></circle><circle r="5" cx="977.43" cy="512.36" fill="rgba(60, 60, 61, 1)"></circle><circle r="5" cx="975.67" cy="674.27" fill="rgba(60, 60, 61, 1)"></circle><circle r="5" cx="1126.12" cy="-86.62" fill="rgba(60, 60, 61, 1)"></circle><circle r="5" cx="1127.69" cy="108.78" fill="rgba(60, 60, 61, 1)"></circle><circle r="5" cx="1102.09" cy="195.94" fill="rgba(60, 60, 61, 1)"></circle><circle r="5" cx="1130.8" cy="358.78" fill="rgba(60, 60, 61, 1)"></circle><circle r="5" cx="1121.07" cy="536.49" fill="rgba(60, 60, 61, 1)"></circle><circle r="5" cx="1151.3" cy="664.54" fill="rgba(60, 60, 61, 1)"></circle><circle r="5" cx="1295.86" cy="-90.37" fill="rgba(60, 60, 61, 1)"></circle><circle r="5" cx="1262.38" cy="66.49" fill="rgba(60, 60, 61, 1)"></circle><circle r="5" cx="1279.78" cy="229.41" fill="rgba(60, 60, 61, 1)"></circle><circle r="5" cx="1270.04" cy="366.51" fill="rgba(60, 60, 61, 1)"></circle><circle r="5" cx="1304.09" cy="552.27" fill="rgba(60, 60, 61, 1)"></circle><circle r="5" cx="1305.69" cy="679.04" fill="rgba(60, 60, 61, 1)"></circle><circle r="5" cx="1454.22" cy="-107.48" fill="rgba(60, 60, 61, 1)"></circle><circle r="5" cx="1460.45" cy="108.77" fill="rgba(60, 60, 61, 1)"></circle><circle r="5" cx="1408.47" cy="194.85" fill="rgba(60, 60, 61, 1)"></circle><circle r="5" cx="1446.55" cy="367.83" fill="rgba(60, 60, 61, 1)"></circle><circle r="5" cx="1432.88" cy="516.02" fill="rgba(60, 60, 61, 1)"></circle><circle r="5" cx="1434.01" cy="696.76" fill="rgba(60, 60, 61, 1)"></circle><circle r="5" cx="1601.15" cy="-47.68" fill="rgba(60, 60, 61, 1)"></circle><circle r="5" cx="1582.36" cy="105.66" fill="rgba(60, 60, 61, 1)"></circle><circle r="5" cx="1576.1" cy="214.89" fill="rgba(60, 60, 61, 1)"></circle><circle r="5" cx="1556.92" cy="396.29" fill="rgba(60, 60, 61, 1)"></circle><circle r="5" cx="1606.25" cy="538.02" fill="rgba(60, 60, 61, 1)"></circle><circle r="5" cx="1601.54" cy="667.43" fill="rgba(60, 60, 61, 1)"></circle><path d="M358.4 559.37L358.4 559.37" stroke="hsl(0, 0%, 52.5%)" stroke-width="1.5"></path><path d="M358.4 559.37L501.27 542.54" stroke="hsl(0, 0%, 52.5%)" stroke-width="1.5"></path><path d="M525.8 661.33L525.8 661.33" stroke="hsl(0, 0%, 52.5%)" stroke-width="1.5"></path><path d="M525.8 661.33L501.27 542.54" stroke="hsl(0, 0%, 52.5%)" stroke-width="1.5"></path><path d="M525.8 661.33L358.4 559.37" stroke="hsl(0, 0%, 52.5%)" stroke-width="1.5"></path><path d="M525.8 661.33L673.25 512.25" stroke="hsl(0, 0%, 52.5%)" stroke-width="1.5"></path><path d="M525.8 661.33L247.08 650.95" stroke="hsl(0, 0%, 52.5%)" stroke-width="1.5"></path><path d="M525.8 661.33L686.55 401.7" stroke="hsl(0, 0%, 52.5%)" stroke-width="1.5"></path><path d="M686.55 401.7L686.55 401.7" stroke="hsl(0, 0%, 52.5%)" stroke-width="1.5"></path><path d="M686.55 401.7L673.25 512.25" stroke="hsl(0, 0%, 52.5%)" stroke-width="1.5"></path><path d="M686.55 401.7L810.84 337.99" stroke="hsl(0, 0%, 52.5%)" stroke-width="1.5"></path><path d="M686.55 401.7L827.79 490.46" stroke="hsl(0, 0%, 52.5%)" stroke-width="1.5"></path><path d="M686.55 401.7L501.27 542.54" stroke="hsl(0, 0%, 52.5%)" stroke-width="1.5"></path><path d="M686.55 401.7L851.99 656.56" stroke="hsl(0, 0%, 52.5%)" stroke-width="1.5"></path><path d="M810.84 337.99L810.84 337.99" stroke="hsl(0, 0%, 52.5%)" stroke-width="1.5"></path><path d="M810.84 337.99L827.79 490.46" stroke="hsl(0, 0%, 52.5%)" stroke-width="1.5"></path><path d="M810.84 337.99L975.19 261.41" stroke="hsl(0, 0%, 52.5%)" stroke-width="1.5"></path><path d="M827.79 490.46L827.79 490.46" stroke="hsl(0, 0%, 52.5%)" stroke-width="1.5"></path><path d="M827.79 490.46L673.25 512.25" stroke="hsl(0, 0%, 52.5%)" stroke-width="1.5"></path><path d="M827.79 490.46L851.99 656.56" stroke="hsl(0, 0%, 52.5%)" stroke-width="1.5"></path><path d="M827.79 490.46L995.37 507.56" stroke="hsl(0, 0%, 52.5%)" stroke-width="1.5"></path><path d="M975.19 261.41L975.19 261.41" stroke="hsl(0, 0%, 52.5%)" stroke-width="1.5"></path><path d="M975.19 261.41L1006.34 368.52" stroke="hsl(0, 0%, 52.5%)" stroke-width="1.5"></path><path d="M975.19 261.41L1093.88 338.99" stroke="hsl(0, 0%, 52.5%)" stroke-width="1.5"></path><path d="M975.19 261.41L1156.98 206.09" stroke="hsl(0, 0%, 52.5%)" stroke-width="1.5"></path><path d="M975.19 261.41L1130.96 103.16" stroke="hsl(0, 0%, 52.5%)" stroke-width="1.5"></path><path d="M975.19 261.41L995.37 507.56" stroke="hsl(0, 0%, 52.5%)" stroke-width="1.5"></path><path d="M995.37 507.56L995.37 507.56" stroke="hsl(0, 0%, 52.5%)" stroke-width="1.5"></path><path d="M995.37 507.56L1114.09 490.93" stroke="hsl(0, 0%, 52.5%)" stroke-width="1.5"></path><path d="M995.37 507.56L1006.34 368.52" stroke="hsl(0, 0%, 52.5%)" stroke-width="1.5"></path><path d="M995.37 507.56L971.83 700.81" stroke="hsl(0, 0%, 52.5%)" stroke-width="1.5"></path><path d="M995.37 507.56L1093.88 338.99" stroke="hsl(0, 0%, 52.5%)" stroke-width="1.5"></path><path d="M995.37 507.56L1099.77 683.43" stroke="hsl(0, 0%, 52.5%)" stroke-width="1.5"></path><path d="M1099.77 683.43L1099.77 683.43" stroke="hsl(0, 0%, 52.5%)" stroke-width="1.5"></path><path d="M1099.77 683.43L971.83 700.81" stroke="hsl(0, 0%, 52.5%)" stroke-width="1.5"></path><path d="M1099.77 683.43L1241.1 650" stroke="hsl(0, 0%, 52.5%)" stroke-width="1.5"></path><path d="M1099.77 683.43L1114.09 490.93" stroke="hsl(0, 0%, 52.5%)" stroke-width="1.5"></path><path d="M1099.77 683.43L851.99 656.56" stroke="hsl(0, 0%, 52.5%)" stroke-width="1.5"></path><path d="M1099.77 683.43L1290.25 522.57" stroke="hsl(0, 0%, 52.5%)" stroke-width="1.5"></path><path d="M1241.1 650L1241.1 650" stroke="hsl(0, 0%, 52.5%)" stroke-width="1.5"></path><path d="M1241.1 650L1290.25 522.57" stroke="hsl(0, 0%, 52.5%)" stroke-width="1.5"></path><path d="M1241.1 650L1114.09 490.93" stroke="hsl(0, 0%, 52.5%)" stroke-width="1.5"></path><path d="M1241.1 650L1458.69 705.19" stroke="hsl(0, 0%, 52.5%)" stroke-width="1.5"></path><path d="M1241.1 650L1407.96 491.66" stroke="hsl(0, 0%, 52.5%)" stroke-width="1.5"></path><path d="M1608.35 394.93L1608.35 394.93" stroke="hsl(0, 0%, 52.5%)" stroke-width="1.5"></path><path d="M1608.35 394.93L1550.17 489.07" stroke="hsl(0, 0%, 52.5%)" stroke-width="1.5"></path><path d="M1608.35 394.93L1418.43 393.83" stroke="hsl(0, 0%, 52.5%)" stroke-width="1.5"></path><path d="M1608.35 394.93L1603.12 203.45" stroke="hsl(0, 0%, 52.5%)" stroke-width="1.5"></path><path d="M-74.19 664.91L-74.19 664.91" stroke="hsl(0, 0%, 52.5%)" stroke-width="1.5"></path><path d="M-74.19 664.91L50.13 685.76" stroke="hsl(0, 0%, 52.5%)" stroke-width="1.5"></path><path d="M-74.19 664.91L94.81 537.57" stroke="hsl(0, 0%, 52.5%)" stroke-width="1.5"></path><path d="M-74.19 664.91L247.08 650.95" stroke="hsl(0, 0%, 52.5%)" stroke-width="1.5"></path><path d="M-74.19 664.91L358.4 559.37" stroke="hsl(0, 0%, 52.5%)" stroke-width="1.5"></path><path d="M-74.19 664.91L501.27 542.54" stroke="hsl(0, 0%, 52.5%)" stroke-width="1.5"></path><path d="M94.81 537.57L94.81 537.57" stroke="hsl(0, 0%, 52.5%)" stroke-width="1.5"></path><path d="M94.81 537.57L50.13 685.76" stroke="hsl(0, 0%, 52.5%)" stroke-width="1.5"></path><path d="M94.81 537.57L247.08 650.95" stroke="hsl(0, 0%, 52.5%)" stroke-width="1.5"></path><path d="M94.81 537.57L358.4 559.37" stroke="hsl(0, 0%, 52.5%)" stroke-width="1.5"></path><path d="M50.13 685.76L50.13 685.76" stroke="hsl(0, 0%, 52.5%)" stroke-width="1.5"></path><path d="M50.13 685.76L247.08 650.95" stroke="hsl(0, 0%, 52.5%)" stroke-width="1.5"></path><path d="M50.13 685.76L358.4 559.37" stroke="hsl(0, 0%, 52.5%)" stroke-width="1.5"></path><path d="M50.13 685.76L501.27 542.54" stroke="hsl(0, 0%, 52.5%)" stroke-width="1.5"></path><path d="M50.13 685.76L525.8 661.33" stroke="hsl(0, 0%, 52.5%)" stroke-width="1.5"></path><path d="M247.08 650.95L247.08 650.95" stroke="hsl(0, 0%, 52.5%)" stroke-width="1.5"></path><path d="M247.08 650.95L358.4 559.37" stroke="hsl(0, 0%, 52.5%)" stroke-width="1.5"></path><path d="M247.08 650.95L501.27 542.54" stroke="hsl(0, 0%, 52.5%)" stroke-width="1.5"></path><path d="M501.27 542.54L501.27 542.54" stroke="hsl(0, 0%, 52.5%)" stroke-width="1.5"></path><path d="M501.27 542.54L673.25 512.25" stroke="hsl(0, 0%, 52.5%)" stroke-width="1.5"></path><path d="M673.25 512.25L673.25 512.25" stroke="hsl(0, 0%, 52.5%)" stroke-width="1.5"></path><path d="M673.25 512.25L810.84 337.99" stroke="hsl(0, 0%, 52.5%)" stroke-width="1.5"></path><path d="M851.99 656.56L851.99 656.56" stroke="hsl(0, 0%, 52.5%)" stroke-width="1.5"></path><path d="M851.99 656.56L971.83 700.81" stroke="hsl(0, 0%, 52.5%)" stroke-width="1.5"></path><path d="M851.99 656.56L995.37 507.56" stroke="hsl(0, 0%, 52.5%)" stroke-width="1.5"></path><path d="M851.99 656.56L673.25 512.25" stroke="hsl(0, 0%, 52.5%)" stroke-width="1.5"></path><path d="M1006.34 368.52L1006.34 368.52" stroke="hsl(0, 0%, 52.5%)" stroke-width="1.5"></path><path d="M1006.34 368.52L1093.88 338.99" stroke="hsl(0, 0%, 52.5%)" stroke-width="1.5"></path><path d="M1006.34 368.52L1114.09 490.93" stroke="hsl(0, 0%, 52.5%)" stroke-width="1.5"></path><path d="M971.83 700.81L971.83 700.81" stroke="hsl(0, 0%, 52.5%)" stroke-width="1.5"></path><path d="M1130.96 103.16L1130.96 103.16" stroke="hsl(0, 0%, 52.5%)" stroke-width="1.5"></path><path d="M1130.96 103.16L1156.98 206.09" stroke="hsl(0, 0%, 52.5%)" stroke-width="1.5"></path><path d="M1130.96 103.16L1252.48 245.68" stroke="hsl(0, 0%, 52.5%)" stroke-width="1.5"></path><path d="M1130.96 103.16L1312.45 42.62" stroke="hsl(0, 0%, 52.5%)" stroke-width="1.5"></path><path d="M1130.96 103.16L1262.23 -42.51" stroke="hsl(0, 0%, 52.5%)" stroke-width="1.5"></path><path d="M1130.96 103.16L1093.88 338.99" stroke="hsl(0, 0%, 52.5%)" stroke-width="1.5"></path><path d="M1156.98 206.09L1156.98 206.09" stroke="hsl(0, 0%, 52.5%)" stroke-width="1.5"></path><path d="M1156.98 206.09L1252.48 245.68" stroke="hsl(0, 0%, 52.5%)" stroke-width="1.5"></path><path d="M1093.88 338.99L1093.88 338.99" stroke="hsl(0, 0%, 52.5%)" stroke-width="1.5"></path><path d="M1114.09 490.93L1114.09 490.93" stroke="hsl(0, 0%, 52.5%)" stroke-width="1.5"></path><path d="M1114.09 490.93L1093.88 338.99" stroke="hsl(0, 0%, 52.5%)" stroke-width="1.5"></path><path d="M1114.09 490.93L1257.73 393.81" stroke="hsl(0, 0%, 52.5%)" stroke-width="1.5"></path><path d="M1262.23 -42.51L1262.23 -42.51" stroke="hsl(0, 0%, 52.5%)" stroke-width="1.5"></path><path d="M1262.23 -42.51L1312.45 42.62" stroke="hsl(0, 0%, 52.5%)" stroke-width="1.5"></path><path d="M1262.23 -42.51L1426.88 -83.92" stroke="hsl(0, 0%, 52.5%)" stroke-width="1.5"></path><path d="M1312.45 42.62L1312.45 42.62" stroke="hsl(0, 0%, 52.5%)" stroke-width="1.5"></path><path d="M1312.45 42.62L1423.75 67.76" stroke="hsl(0, 0%, 52.5%)" stroke-width="1.5"></path><path d="M1312.45 42.62L1426.88 -83.92" stroke="hsl(0, 0%, 52.5%)" stroke-width="1.5"></path><path d="M1312.45 42.62L1252.48 245.68" stroke="hsl(0, 0%, 52.5%)" stroke-width="1.5"></path><path d="M1252.48 245.68L1252.48 245.68" stroke="hsl(0, 0%, 52.5%)" stroke-width="1.5"></path><path d="M1257.73 393.81L1257.73 393.81" stroke="hsl(0, 0%, 52.5%)" stroke-width="1.5"></path><path d="M1257.73 393.81L1290.25 522.57" stroke="hsl(0, 0%, 52.5%)" stroke-width="1.5"></path><path d="M1257.73 393.81L1252.48 245.68" stroke="hsl(0, 0%, 52.5%)" stroke-width="1.5"></path><path d="M1257.73 393.81L1418.43 393.83" stroke="hsl(0, 0%, 52.5%)" stroke-width="1.5"></path><path d="M1257.73 393.81L1093.88 338.99" stroke="hsl(0, 0%, 52.5%)" stroke-width="1.5"></path><path d="M1290.25 522.57L1290.25 522.57" stroke="hsl(0, 0%, 52.5%)" stroke-width="1.5"></path><path d="M1290.25 522.57L1407.96 491.66" stroke="hsl(0, 0%, 52.5%)" stroke-width="1.5"></path><path d="M1290.25 522.57L1114.09 490.93" stroke="hsl(0, 0%, 52.5%)" stroke-width="1.5"></path><path d="M1426.88 -83.92L1426.88 -83.92" stroke="hsl(0, 0%, 52.5%)" stroke-width="1.5"></path><path d="M1426.88 -83.92L1423.75 67.76" stroke="hsl(0, 0%, 52.5%)" stroke-width="1.5"></path><path d="M1426.88 -83.92L1599.2 -112.18" stroke="hsl(0, 0%, 52.5%)" stroke-width="1.5"></path><path d="M1426.88 -83.92L1601.92 70.75" stroke="hsl(0, 0%, 52.5%)" stroke-width="1.5"></path><path d="M1426.88 -83.92L1458.08 228.64" stroke="hsl(0, 0%, 52.5%)" stroke-width="1.5"></path><path d="M1423.75 67.76L1423.75 67.76" stroke="hsl(0, 0%, 52.5%)" stroke-width="1.5"></path><path d="M1423.75 67.76L1458.08 228.64" stroke="hsl(0, 0%, 52.5%)" stroke-width="1.5"></path><path d="M1423.75 67.76L1601.92 70.75" stroke="hsl(0, 0%, 52.5%)" stroke-width="1.5"></path><path d="M1458.08 228.64L1458.08 228.64" stroke="hsl(0, 0%, 52.5%)" stroke-width="1.5"></path><path d="M1458.08 228.64L1603.12 203.45" stroke="hsl(0, 0%, 52.5%)" stroke-width="1.5"></path><path d="M1458.08 228.64L1418.43 393.83" stroke="hsl(0, 0%, 52.5%)" stroke-width="1.5"></path><path d="M1458.08 228.64L1252.48 245.68" stroke="hsl(0, 0%, 52.5%)" stroke-width="1.5"></path><path d="M1458.08 228.64L1601.92 70.75" stroke="hsl(0, 0%, 52.5%)" stroke-width="1.5"></path><path d="M1418.43 393.83L1418.43 393.83" stroke="hsl(0, 0%, 52.5%)" stroke-width="1.5"></path><path d="M1418.43 393.83L1407.96 491.66" stroke="hsl(0, 0%, 52.5%)" stroke-width="1.5"></path><path d="M1418.43 393.83L1550.17 489.07" stroke="hsl(0, 0%, 52.5%)" stroke-width="1.5"></path><path d="M1418.43 393.83L1290.25 522.57" stroke="hsl(0, 0%, 52.5%)" stroke-width="1.5"></path><path d="M1407.96 491.66L1407.96 491.66" stroke="hsl(0, 0%, 52.5%)" stroke-width="1.5"></path><path d="M1407.96 491.66L1550.17 489.07" stroke="hsl(0, 0%, 52.5%)" stroke-width="1.5"></path><path d="M1407.96 491.66L1257.73 393.81" stroke="hsl(0, 0%, 52.5%)" stroke-width="1.5"></path><path d="M1407.96 491.66L1458.69 705.19" stroke="hsl(0, 0%, 52.5%)" stroke-width="1.5"></path><path d="M1458.69 705.19L1458.69 705.19" stroke="hsl(0, 0%, 52.5%)" stroke-width="1.5"></path><path d="M1458.69 705.19L1570.09 640.81" stroke="hsl(0, 0%, 52.5%)" stroke-width="1.5"></path><path d="M1458.69 705.19L1550.17 489.07" stroke="hsl(0, 0%, 52.5%)" stroke-width="1.5"></path><path d="M1599.2 -112.18L1599.2 -112.18" stroke="hsl(0, 0%, 52.5%)" stroke-width="1.5"></path><path d="M1599.2 -112.18L1601.92 70.75" stroke="hsl(0, 0%, 52.5%)" stroke-width="1.5"></path><path d="M1599.2 -112.18L1423.75 67.76" stroke="hsl(0, 0%, 52.5%)" stroke-width="1.5"></path><path d="M1599.2 -112.18L1603.12 203.45" stroke="hsl(0, 0%, 52.5%)" stroke-width="1.5"></path><path d="M1599.2 -112.18L1312.45 42.62" stroke="hsl(0, 0%, 52.5%)" stroke-width="1.5"></path><path d="M1599.2 -112.18L1262.23 -42.51" stroke="hsl(0, 0%, 52.5%)" stroke-width="1.5"></path><path d="M1601.92 70.75L1601.92 70.75" stroke="hsl(0, 0%, 52.5%)" stroke-width="1.5"></path><path d="M1601.92 70.75L1603.12 203.45" stroke="hsl(0, 0%, 52.5%)" stroke-width="1.5"></path><path d="M1603.12 203.45L1603.12 203.45" stroke="hsl(0, 0%, 52.5%)" stroke-width="1.5"></path><path d="M1550.17 489.07L1550.17 489.07" stroke="hsl(0, 0%, 52.5%)" stroke-width="1.5"></path><path d="M1550.17 489.07L1570.09 640.81" stroke="hsl(0, 0%, 52.5%)" stroke-width="1.5"></path><path d="M1570.09 640.81L1570.09 640.81" stroke="hsl(0, 0%, 52.5%)" stroke-width="1.5"></path><path d="M1570.09 640.81L1407.96 491.66" stroke="hsl(0, 0%, 52.5%)" stroke-width="1.5"></path><path d="M1570.09 640.81L1608.35 394.93" stroke="hsl(0, 0%, 52.5%)" stroke-width="1.5"></path><path d="M1570.09 640.81L1418.43 393.83" stroke="hsl(0, 0%, 52.5%)" stroke-width="1.5"></path><path d="M1570.09 640.81L1290.25 522.57" stroke="hsl(0, 0%, 52.5%)" stroke-width="1.5"></path><circle r="25" cx="358.4" cy="559.37" fill="url(#SvgjsRadialGradient1819)"></circle><circle r="25" cx="525.8" cy="661.33" fill="url(#SvgjsRadialGradient1819)"></circle><circle r="25" cx="686.55" cy="401.7" fill="url(#SvgjsRadialGradient1819)"></circle><circle r="25" cx="810.84" cy="337.99" fill="url(#SvgjsRadialGradient1819)"></circle><circle r="25" cx="827.79" cy="490.46" fill="url(#SvgjsRadialGradient1819)"></circle><circle r="25" cx="975.19" cy="261.41" fill="url(#SvgjsRadialGradient1819)"></circle><circle r="25" cx="995.37" cy="507.56" fill="url(#SvgjsRadialGradient1819)"></circle><circle r="25" cx="1099.77" cy="683.43" fill="url(#SvgjsRadialGradient1819)"></circle><circle r="25" cx="1241.1" cy="650" fill="url(#SvgjsRadialGradient1819)"></circle><circle r="25" cx="1608.35" cy="394.93" fill="url(#SvgjsRadialGradient1819)"></circle><circle r="5" cx="-74.19" cy="664.91" fill="#b3b3b3"></circle><circle r="5" cx="94.81" cy="537.57" fill="#b3b3b3"></circle><circle r="5" cx="50.13" cy="685.76" fill="#b3b3b3"></circle><circle r="5" cx="247.08" cy="650.95" fill="#b3b3b3"></circle><circle r="5" cx="501.27" cy="542.54" fill="#b3b3b3"></circle><circle r="5" cx="673.25" cy="512.25" fill="#b3b3b3"></circle><circle r="5" cx="851.99" cy="656.56" fill="#b3b3b3"></circle><circle r="5" cx="1006.34" cy="368.52" fill="#b3b3b3"></circle><circle r="5" cx="971.83" cy="700.81" fill="#b3b3b3"></circle><circle r="5" cx="1130.96" cy="103.16" fill="#b3b3b3"></circle><circle r="5" cx="1156.98" cy="206.09" fill="#b3b3b3"></circle><circle r="5" cx="1093.88" cy="338.99" fill="#b3b3b3"></circle><circle r="5" cx="1114.09" cy="490.93" fill="#b3b3b3"></circle><circle r="5" cx="1262.23" cy="-42.51" fill="#b3b3b3"></circle><circle r="5" cx="1312.45" cy="42.62" fill="#b3b3b3"></circle><circle r="5" cx="1252.48" cy="245.68" fill="#b3b3b3"></circle><circle r="5" cx="1257.73" cy="393.81" fill="#b3b3b3"></circle><circle r="5" cx="1290.25" cy="522.57" fill="#b3b3b3"></circle><circle r="5" cx="1426.88" cy="-83.92" fill="#b3b3b3"></circle><circle r="5" cx="1423.75" cy="67.76" fill="#b3b3b3"></circle><circle r="5" cx="1458.08" cy="228.64" fill="#b3b3b3"></circle><circle r="5" cx="1418.43" cy="393.83" fill="#b3b3b3"></circle><circle r="5" cx="1407.96" cy="491.66" fill="#b3b3b3"></circle><circle r="5" cx="1458.69" cy="705.19" fill="#b3b3b3"></circle><circle r="5" cx="1599.2" cy="-112.18" fill="#b3b3b3"></circle><circle r="5" cx="1601.92" cy="70.75" fill="#b3b3b3"></circle><circle r="5" cx="1603.12" cy="203.45" fill="#b3b3b3"></circle><circle r="5" cx="1550.17" cy="489.07" fill="#b3b3b3"></circle><circle r="5" cx="1570.09" cy="640.81" fill="#b3b3b3"></circle></g><defs><mask id="SvgjsMask1818"><rect width="1440" height="560" fill="#ffffff"></rect></mask><radialGradient id="SvgjsRadialGradient1819"><stop stop-color="#ffffff" offset="0.1"></stop><stop stop-color="rgba(103, 103, 103, 1)" offset="0.2"></stop><stop stop-color="rgba(103, 103, 103, 0)" offset="1"></stop></radialGradient></defs></svg>