<svg width="64" height="65" viewBox="0 0 64 65" fill="none" xmlns="http://www.w3.org/2000/svg">
<rect width="64" height="65" fill="#00000000"/>
<rect width="64" height="64" rx="6" fill="black"/>
<g style="mix-blend-mode:lighten">
<path d="M40.506 17.786C40.506 18.626 40.324 19.256 39.96 19.676C39.624 20.096 39.064 20.306 38.28 20.306C38.224 20.894 38.098 21.916 37.902 23.372C37.622 25.332 37.468 26.424 37.44 26.648C34.948 45.212 29.754 54.494 21.858 54.494C19.534 54.494 17.714 53.836 16.398 52.52C15.11 51.204 14.466 49.552 14.466 47.564C14.466 44.008 15.978 40.872 19.002 38.156C22.026 35.412 26.002 33.144 30.93 31.352C31.238 29.364 31.476 27.586 31.644 26.018L32.4 19.676C30.72 19.508 29.152 19.424 27.696 19.424C23.804 19.424 20.934 19.802 19.086 20.558C17.238 21.314 16.314 22.546 16.314 24.254C16.314 25.094 16.594 26.004 17.154 26.984C17.322 27.264 17.406 27.558 17.406 27.866C17.406 28.454 17.098 28.986 16.482 29.462C15.894 29.91 15.25 30.134 14.55 30.134C13.654 30.134 12.968 29.756 12.492 29C11.708 27.712 11.316 26.214 11.316 24.506C11.316 17.786 17.196 14.426 28.956 14.426C32.372 14.426 35.424 14.762 38.112 15.434C39.708 15.826 40.506 16.61 40.506 17.786ZM22.404 50C23.776 50 25.148 48.964 26.52 46.892C27.892 44.82 29.096 41.194 30.132 36.014C23.3 39.01 19.884 42.678 19.884 47.018C19.884 47.97 20.108 48.712 20.556 49.244C21.004 49.748 21.62 50 22.404 50ZM47.8448 64.07C47.0888 64.07 46.5008 63.888 46.0808 63.524C45.6608 63.16 45.4648 62.516 45.4928 61.592C45.5488 59.94 45.7308 57.896 46.0388 55.46C46.3748 53.024 46.8088 50.504 47.3408 47.9C46.8368 48.712 46.2628 49.3 45.6188 49.664C45.0028 50.028 44.2888 50.21 43.4768 50.21C41.9368 50.21 40.6768 49.608 39.6968 48.404C38.7448 47.172 38.2688 45.492 38.2688 43.364C38.2688 41.124 38.7868 39.01 39.8228 37.022C40.8588 35.006 42.2308 33.396 43.9388 32.192C45.6748 30.96 47.5088 30.344 49.4408 30.344C49.7208 30.344 50.0148 30.386 50.3228 30.47C50.6308 30.554 50.8688 30.68 51.0368 30.848C51.2608 30.12 51.6248 29.588 52.1288 29.252C52.6328 28.916 53.3048 28.748 54.1448 28.748C54.9848 28.748 55.5588 28.888 55.8668 29.168C56.1748 29.448 56.3008 29.854 56.2448 30.386C56.1888 30.778 55.9088 32.01 55.4048 34.082C54.4808 37.75 53.7248 41.124 53.1368 44.204C51.9608 50.42 51.1068 56.202 50.5748 61.55C50.4908 62.502 50.1968 63.16 49.6928 63.524C49.2168 63.888 48.6008 64.07 47.8448 64.07ZM45.4928 45.968C46.1648 45.968 46.7528 45.618 47.2568 44.918C47.7608 44.218 48.1668 43.238 48.4748 41.978L50.2388 34.25C49.0068 34.278 47.8728 34.726 46.8368 35.594C45.8008 36.434 44.9888 37.554 44.4008 38.954C43.8128 40.354 43.5188 41.838 43.5188 43.406C43.5188 44.274 43.6868 44.918 44.0228 45.338C44.3868 45.758 44.8768 45.968 45.4928 45.968Z" fill="white"/>
</g>
</svg>
